<svg width="132" height="32" viewBox="0 0 166 40" fill="none" xmlns="http://www.w3.org/2000/svg">
    <path d="M17.9317 38.1082C14.9402 39.3406 11.9923 40 9.41437 40C7.14064 40 5.24635 39.4729 3.96484 38.4573C2.56295 37.3479 1.54893 35.3938 0.897027 32.657C0.244132 29.9158 -0.0516021 26.3623 0.00734659 22.02C0.0657999 17.8686 0.361534 14.4985 0.913869 11.8516C1.46075 9.23046 2.26226 7.30052 3.35108 6.02513C4.0966 3.44701 5.177 1.72337 6.64577 0.817123C8.17447 -0.131119 10.5067 -0.222428 13.1603 0.379623C15.8234 0.983627 18.8516 2.29466 21.8085 4.20799C24.1431 5.71361 26.4927 7.66478 28.3884 9.89379C32.3732 13.5044 35.5435 18.3174 34.9218 23.3501C34.4047 27.4634 30.8385 33.0552 22.3994 36.5564C21.0857 37.105 19.771 37.5366 18.5073 37.8516L18.5014 37.8545L18.4642 37.8716C18.381 37.9106 18.2963 37.95 18.2111 37.988C18.1185 38.0298 18.0253 38.0703 17.9317 38.1082ZM26.7384 30.0261C24.9456 31.5029 22.6996 32.8782 19.9325 34.0276C16.941 35.2603 13.9921 35.9202 11.4142 35.9202C10.626 35.9202 9.88795 35.8535 9.20582 35.731L9.30737 35.8162C10.1753 36.4998 11.4107 36.9084 12.9141 37.0286C13.68 37.0898 14.5117 37.0759 15.394 36.9866C16.2371 36.9014 17.1268 36.7473 18.0486 36.5247C22.1889 34.6894 24.9892 32.3533 26.7384 30.0261ZM28.9591 25.2722C28.9958 25.0845 29.0245 24.9021 29.0433 24.7229C29.4119 21.7463 28.2611 18.801 26.3332 16.1553C24.4067 13.5107 21.7158 11.1836 19.0433 9.45336C15.3652 7.06883 11.6524 5.67113 8.82885 5.46459C7.9248 6.57274 7.22138 8.3308 6.72899 10.7893C6.22569 13.3017 5.9468 16.5246 5.88884 20.4875C5.79869 26.7705 6.45208 31.231 7.7965 33.8518C9.05771 34.4346 10.7667 34.6436 12.7512 34.4644C14.7643 34.2822 17.046 33.7017 19.4 32.7241C23.9876 30.8152 27.0148 28.2944 28.8367 25.8088C28.8838 25.624 28.9249 25.4458 28.9591 25.2722ZM10.3784 4.28758C13.2233 4.79613 16.5601 6.17406 19.8092 8.27489C22.4733 9.99877 25.1636 12.3047 27.1812 14.9548C29.0047 17.3489 30.2877 20.0354 30.4933 22.8347C30.7895 22.0705 30.9713 21.3315 31.056 20.6433C31.4746 17.2175 29.8795 13.8203 27.422 10.9106C26.1865 9.78783 24.8614 8.78075 23.5363 7.9287C19.6437 5.41014 15.553 3.92015 12.5827 3.92015C12.179 3.92015 11.8045 3.94725 11.4602 3.99999C11.0585 4.06151 10.6979 4.15794 10.3784 4.28758ZM5.391 6.08006C5.12152 6.24486 4.86145 6.45555 4.62169 6.70262C3.8836 9.38646 3.48582 13.1184 3.42142 17.9455C3.36941 21.718 3.5839 24.8418 4.05747 27.3057C4.4072 29.1248 4.89662 30.5732 5.51732 31.6555C4.76287 28.8447 4.41909 25.1074 4.48695 20.4687C4.53897 16.6763 4.78962 13.5361 5.25329 11.0041C5.67831 8.68114 6.28514 6.85912 7.0916 5.51268C6.7493 5.55907 6.43325 5.63109 6.14495 5.7285C5.86853 5.82201 5.61689 5.9392 5.391 6.08006ZM17.7306 3.50462C14.9357 2.14232 12.2345 1.3784 10.1158 1.3784C8.97003 1.3784 8.0645 1.59593 7.40467 2.01292C6.63982 2.48436 5.96662 3.30736 5.4128 4.51415C6.21331 4.20043 7.16342 4.05711 8.21558 4.07005C8.5029 3.78856 8.79517 3.55003 9.12558 3.34593C10.3576 2.57396 12.1211 2.36937 14.1501 2.63768C15.2676 2.78563 16.4739 3.07787 17.7306 3.50462ZM6.60069 34.7913L6.53233 34.7485L6.40254 34.6648C6.2574 34.5691 6.1177 34.47 5.98148 34.3674L5.97752 34.3645C4.57612 33.2554 3.55864 31.3013 2.90475 28.5642C2.25037 25.823 1.95464 22.2695 2.02002 17.9272C2.04479 15.7913 2.1404 13.8594 2.30238 12.125C1.77135 14.6655 1.47809 17.9524 1.42162 22.0254C1.36366 26.1887 1.62621 29.5576 2.2043 32.1223C2.78339 34.6926 3.67257 36.4246 4.83966 37.3535C5.7011 38.0312 6.9306 38.4402 8.4281 38.5618C9.55902 38.6538 10.8356 38.5813 12.2068 38.342C10.6805 38.1396 9.39456 37.6609 8.44444 36.906C7.80938 36.4014 7.25705 35.7312 6.78546 34.9014C6.72304 34.8652 6.66112 34.8284 6.60069 34.7913ZM32.173 16.8183C32.498 18.1225 32.6075 19.4643 32.442 20.821C32.2305 22.5166 31.5088 24.4661 30.1287 26.4097C29.503 28.6348 28.0278 31.1384 25.4777 33.4534C30.8024 30.2737 33.1326 26.2175 33.5105 23.1848C33.784 21.0171 33.2411 18.8562 32.173 16.8183ZM97.2301 14.8474C97.5869 15.0855 97.8248 15.2556 97.9607 15.3916L99.711 12.2281C98.8274 11.6328 97.7738 11.1055 96.5674 10.6633C95.3609 10.2211 94.0355 10 92.6081 10C91.5886 10 90.62 10.1361 89.7194 10.4082C88.8188 10.6974 88.0372 11.0885 87.3575 11.6158C86.6948 12.143 86.168 12.7894 85.7772 13.5888C85.3864 14.3881 85.1994 15.2896 85.1994 16.3101C85.1994 17.0755 85.3184 17.7388 85.5563 18.3001C85.7942 18.8443 86.151 19.3376 86.6268 19.7628C87.1026 20.188 87.6973 20.5622 88.411 20.8683C89.1247 21.1915 89.9743 21.4636 90.9429 21.7358C91.7415 21.9569 92.4722 22.161 93.1179 22.3481C93.7636 22.5522 94.3244 22.7563 94.7832 22.9774C95.242 23.2155 95.5818 23.4706 95.8367 23.7768C96.0916 24.0829 96.2105 24.4401 96.2105 24.8823C96.2105 26.26 95.123 26.9403 92.948 26.9403C92.1664 26.9403 91.4017 26.8383 90.654 26.6512C89.9064 26.4641 89.2266 26.2259 88.6149 25.9538C88.0032 25.6817 87.4764 25.4096 87.0346 25.1374C86.5758 24.8653 86.2699 24.6442 86.1 24.4741L84.3498 27.8417C85.5393 28.6751 86.8647 29.3045 88.36 29.7637C89.8384 30.2229 91.3507 30.444 92.88 30.444C93.8826 30.444 94.8341 30.342 95.7347 30.1208C96.6523 29.8997 97.451 29.5596 98.1477 29.0833C98.8444 28.6071 99.4051 27.9948 99.8129 27.2294C100.221 26.4641 100.425 25.5456 100.425 24.4741C100.425 23.5556 100.272 22.7903 99.9658 22.1439C99.66 21.4976 99.2182 20.9704 98.6574 20.5112C98.0967 20.0519 97.417 19.6778 96.6014 19.3716C95.7857 19.0655 94.8851 18.7933 93.8996 18.5212C93.6668 18.459 93.4414 18.3999 93.2248 18.3431L93.224 18.3429L93.2239 18.3429C92.7296 18.2133 92.2789 18.0951 91.8775 17.9769C91.2997 17.8068 90.8239 17.6197 90.4331 17.4156C90.0593 17.2115 89.7704 16.9734 89.5665 16.7013C89.3626 16.4291 89.2606 16.072 89.2606 15.6638C89.2606 14.9494 89.5325 14.3882 90.0593 13.997C90.586 13.6058 91.4017 13.4017 92.4892 13.4017C93.1009 13.4017 93.6956 13.4697 94.2904 13.6228C94.8851 13.7759 95.4289 13.963 95.9386 14.1841C96.4484 14.4052 96.8732 14.6263 97.2301 14.8474ZM47.0002 30.2222V10.1354H54.3919C56.0572 10.1354 57.5015 10.3905 58.7589 10.9347C60.0164 11.462 61.0529 12.1763 61.9025 13.0778C62.7352 13.9792 63.3639 15.0508 63.7887 16.2584C64.2135 17.4659 64.4174 18.7756 64.4174 20.1532C64.4174 21.684 64.1795 23.0617 63.7207 24.3033C63.2449 25.5449 62.5822 26.5994 61.6986 27.4668C60.815 28.3343 59.7615 29.0146 58.5381 29.5078C57.2976 29.9841 55.9212 30.2222 54.3919 30.2222H47.0002ZM60.4242 20.1532C60.4242 19.2008 60.2883 18.2993 60.0164 17.5C59.7445 16.6836 59.3537 15.9862 58.8439 15.4079C58.3341 14.8297 57.6884 14.3704 56.9408 14.0473C56.1931 13.7241 55.3265 13.571 54.3749 13.571H50.9424V26.8035H54.3749C55.3435 26.8035 56.2101 26.6334 56.9747 26.2933C57.7224 25.9531 58.3511 25.4939 58.8609 24.8986C59.3706 24.3033 59.7445 23.6059 60.0164 22.7895C60.2883 21.9731 60.4242 21.0887 60.4242 20.1532ZM81.4275 30.2226V26.7869H71.2661V21.5653H79.8303V18.3848H71.2661V13.5544H81.1727V10.1357H67.3068V30.2226H81.4275ZM120.442 30.2226V16.9221L115.208 26.8209H113.05L107.816 16.9221V30.2226H103.857V10.1357H108.105L114.12 21.5653L120.187 10.1357H124.401V30.2226H120.442ZM137.451 30.359C135.955 30.359 134.613 30.0698 133.407 29.4915C132.2 28.9133 131.146 28.1479 130.28 27.1954C129.413 26.2429 128.734 25.1544 128.258 23.9298C127.782 22.7052 127.544 21.4466 127.544 20.171C127.544 18.8273 127.799 17.5517 128.309 16.3271C128.819 15.1025 129.515 14.014 130.399 13.0785C131.282 12.143 132.336 11.3947 133.559 10.8334C134.783 10.2721 136.108 10 137.536 10C138.997 10 140.339 10.2891 141.563 10.8844C142.769 11.4797 143.806 12.2621 144.672 13.2146C145.539 14.184 146.202 15.2726 146.678 16.4972C147.153 17.7218 147.391 18.9634 147.391 20.239C147.391 21.5827 147.136 22.8583 146.644 24.0659C146.151 25.2905 145.454 26.362 144.588 27.2975C143.704 28.2329 142.65 28.9813 141.444 29.5426C140.203 30.0698 138.878 30.359 137.451 30.359ZM131.554 20.171C131.554 21.0384 131.69 21.8718 131.962 22.6882C132.234 23.5046 132.608 24.219 133.118 24.8313C133.627 25.4606 134.239 25.9538 134.987 26.328C135.717 26.7022 136.55 26.8893 137.485 26.8893C138.436 26.8893 139.286 26.7022 140.017 26.311C140.747 25.9198 141.376 25.4096 141.886 24.7632C142.396 24.1169 142.769 23.4026 143.024 22.6032C143.279 21.8038 143.415 20.9874 143.415 20.154C143.415 19.2865 143.279 18.4531 143.007 17.6367C142.735 16.8203 142.345 16.106 141.835 15.4937C141.325 14.8644 140.713 14.3711 139.966 14.014C139.235 13.6398 138.402 13.4697 137.485 13.4697C136.533 13.4697 135.684 13.6568 134.936 14.048C134.188 14.4392 133.576 14.9494 133.067 15.5787C132.574 16.208 132.2 16.9224 131.945 17.7218C131.673 18.5212 131.554 19.3376 131.554 20.171ZM162.667 15.3916C162.531 15.2556 162.293 15.0855 161.936 14.8474C161.579 14.6263 161.154 14.4052 160.645 14.1841C160.135 13.963 159.591 13.7759 158.996 13.6228C158.402 13.4697 157.807 13.4017 157.195 13.4017C156.108 13.4017 155.292 13.6058 154.765 13.997C154.239 14.3882 153.967 14.9494 153.967 15.6638C153.967 16.072 154.069 16.4291 154.273 16.7013C154.476 16.9734 154.765 17.2115 155.139 17.4156C155.53 17.6197 156.006 17.8068 156.583 17.9769C156.985 18.0951 157.436 18.2134 157.93 18.343C158.147 18.3999 158.372 18.4589 158.606 18.5212C159.591 18.7933 160.492 19.0655 161.307 19.3716C162.123 19.6778 162.803 20.0519 163.363 20.5112C163.924 20.9704 164.366 21.4976 164.672 22.1439C164.978 22.7903 165.131 23.5556 165.131 24.4741C165.131 25.5456 164.927 26.4641 164.519 27.2294C164.111 27.9948 163.55 28.6071 162.854 29.0833C162.157 29.5596 161.358 29.8997 160.441 30.1208C159.54 30.342 158.589 30.444 157.586 30.444C156.057 30.444 154.544 30.2229 153.066 29.7637C151.571 29.3045 150.245 28.6751 149.056 27.8417L150.806 24.4741C150.976 24.6442 151.282 24.8653 151.741 25.1374C152.182 25.4096 152.709 25.6817 153.321 25.9538C153.933 26.2259 154.612 26.4641 155.36 26.6512C156.108 26.8383 156.872 26.9403 157.654 26.9403C159.829 26.9403 160.917 26.26 160.917 24.8823C160.917 24.4401 160.798 24.0829 160.543 23.7768C160.288 23.4706 159.948 23.2155 159.489 22.9774C159.03 22.7563 158.47 22.5522 157.824 22.3481C157.178 22.161 156.448 21.9569 155.649 21.7358C154.68 21.4636 153.831 21.1915 153.117 20.8683C152.403 20.5622 151.809 20.188 151.333 19.7628C150.857 19.3376 150.5 18.8443 150.262 18.3001C150.024 17.7388 149.905 17.0755 149.905 16.3101C149.905 15.2896 150.092 14.3881 150.483 13.5888C150.874 12.7894 151.401 12.143 152.063 11.6158C152.743 11.0885 153.525 10.6974 154.425 10.4082C155.326 10.1361 156.295 10 157.314 10C158.742 10 160.067 10.2211 161.273 10.6633C162.48 11.1055 163.533 11.6328 164.417 12.2281L162.667 15.3916Z"
          fill="#FF6C3E"></path>
</svg>