<svg width="201" height="28" viewBox="0 0 201 28" fill="none"
  xmlns="http://www.w3.org/2000/svg">
  <path d="M41.7054 0.5C38.6285 0.5 35.2721 2.13912 31.7293 5.37053C30.0511 6.89259 28.5827 8.53171 27.5105 9.84301C27.5105 9.84301 29.2353 11.7865 31.1233 13.8706C32.1489 12.6061 33.6173 10.8967 35.3187 9.35127C38.4653 6.47109 40.5163 5.8857 41.7054 5.8857C46.1337 5.8857 49.7232 9.51515 49.7232 14.0111C49.7232 18.4602 46.1337 22.0895 41.7054 22.1364C41.4952 22.1364 41.2388 22.113 40.9359 22.0428C42.2177 22.6282 43.6163 23.0497 44.9217 23.0497C53.0327 23.0497 54.6174 17.5703 54.7107 17.1721C54.9437 16.1653 55.0839 15.1116 55.0839 14.0345C55.0605 6.56473 49.0705 0.5 41.7054 0.5Z" fill="url(#paint0_linear_31_8726)"/>
  <path d="M13.3788 27.5001C16.4555 27.5001 19.8117 25.8609 23.3545 22.6296C25.0327 21.1074 26.5011 19.4684 27.5733 18.157C27.5733 18.157 25.8485 16.2135 23.9606 14.1295C22.935 15.394 21.4666 17.1033 19.7651 18.6488C16.6186 21.5056 14.5441 22.1144 13.3788 22.1144C8.95023 22.1144 5.3608 18.4849 5.3608 13.989C5.3608 9.53995 8.95023 5.91051 13.3788 5.86366C13.5885 5.86366 13.8448 5.88706 14.1479 5.9573C12.866 5.37192 11.4675 4.95044 10.1623 4.95044C2.05109 4.95044 0.466125 10.4298 0.372924 10.8279C0.13986 11.8348 0 12.8885 0 13.9656C0 21.4354 5.99014 27.5001 13.3788 27.5001Z" fill="url(#paint1_linear_31_8726)"/>
  <path fill-rule="evenodd" clip-rule="evenodd" d="M19.5459 9.46836C18.6603 8.62535 14.325 5.1832 10.1762 5.06612C2.78267 4.88441 0.609276 10.1453 0.42189 10.8238C1.83809 4.92444 7.11701 0.523351 13.3927 0.5C18.5088 0.5 23.6788 5.40995 27.4987 9.84115C27.505 9.8337 27.5109 9.82645 27.5169 9.81947C27.5169 9.81947 29.2415 11.763 31.1295 13.847C31.1295 13.847 33.2738 16.3292 35.558 18.5068C36.4438 19.3498 40.7556 22.7451 44.9044 22.8623C52.503 23.073 54.6008 17.5234 54.717 17.1018C53.319 23.0262 48.0279 27.4517 41.7345 27.4751C36.6169 27.4751 31.445 22.5619 27.609 18.1296C27.6014 18.1386 27.5941 18.1474 27.5872 18.1558C27.5872 18.1558 25.8625 16.2122 23.9745 14.1282C23.9745 14.1282 21.8301 11.646 19.5459 9.46836Z" fill="#29ABE2"/>
  <path d="M199.595 7.29012C199.992 7.29012 200.268 7.44923 200.428 7.72789C200.507 7.88699 200.624 8.20537 200.309 8.64313L195.714 15.6477V20.4234C195.714 21.0601 195.318 21.458 194.683 21.458H194.05C193.416 21.458 193.019 21.0601 193.019 20.4234V15.6477L188.384 8.64313C188.108 8.16565 188.185 7.84727 188.265 7.68801C188.384 7.40951 188.702 7.25024 189.099 7.25024H189.93C190.445 7.25024 190.8 7.44923 191.038 7.88699L194.326 13.1802L197.655 7.88699C197.892 7.48911 198.248 7.29012 198.763 7.29012H199.595Z" fill="#FFFFFF"/>
  <path d="M106.551 7.29126H99.3408C98.7071 7.29126 98.3113 7.68923 98.3113 8.32596V20.4643C98.3113 21.1011 98.7071 21.4991 99.3408 21.4991H99.9745C100.609 21.4991 101.005 21.1011 101.005 20.4643V15.6884H105.719C106.353 15.6884 106.749 15.2508 106.749 14.6538V14.3752C106.749 13.7384 106.353 13.3404 105.719 13.3404H101.005V9.59946H106.551C107.184 9.59946 107.581 9.2015 107.581 8.56476V8.28617C107.581 7.68921 107.184 7.29126 106.551 7.29126Z" fill="#FFFFFF"/>
  <path fill-rule="evenodd" clip-rule="evenodd" d="M81.0289 7.29272H77.345C76.7105 7.29272 76.3146 7.69068 76.3146 8.32743V20.4658C76.3146 21.1025 76.7105 21.5006 77.345 21.5006H81.068C85.3466 21.5006 88.3179 18.5954 88.3179 14.4166C88.278 10.2378 85.3067 7.29272 81.0289 7.29272ZM85.5445 14.3767C85.5445 17.1625 83.6825 19.1127 80.9891 19.1127H79.0082V9.60092H80.9891C83.6825 9.6408 85.5445 11.5909 85.5445 14.3767Z" fill="#FFFFFF"/>
  <path d="M120.183 7.29126H120.818C121.451 7.29126 121.847 7.68923 121.847 8.32596V20.4643C121.847 21.1011 121.451 21.4991 120.818 21.4991H120.183C119.549 21.4991 119.154 21.1011 119.154 20.4643V8.32596C119.154 7.68923 119.549 7.29126 120.183 7.29126Z" fill="#FFFFFF"/>
  <path d="M143.648 7.29272H143.015C142.381 7.29272 141.984 7.6907 141.984 8.32743V16.4063L135.686 7.8498C135.409 7.45183 135.052 7.29272 134.576 7.29272H134.3C133.666 7.29272 133.269 7.6907 133.269 8.32743V20.4658C133.269 21.1025 133.666 21.5006 134.3 21.5006H134.933C135.567 21.5006 135.964 21.1025 135.964 20.4658V12.347L142.262 20.9435C142.539 21.3412 142.896 21.5006 143.371 21.5006H143.648C144.282 21.5006 144.679 21.1025 144.679 20.4658V8.32743C144.679 7.6907 144.282 7.29272 143.648 7.29272Z" fill="#FFFFFF"/>
  <path d="M157.116 7.29126H157.75C158.345 7.29126 158.781 7.68923 158.781 8.32596V20.4643C158.781 21.1011 158.384 21.4991 157.75 21.4991H157.116C156.484 21.4991 156.086 21.1011 156.086 20.4643V8.32596C156.086 7.68923 156.484 7.29126 157.116 7.29126Z" fill="#FFFFFF"/>
  <path d="M179.702 7.29126H170.194C169.601 7.29126 169.165 7.68923 169.165 8.32596V8.60455C169.165 9.2015 169.56 9.63927 170.194 9.63927H173.602V20.4643C173.602 21.1011 173.997 21.4991 174.631 21.4991H175.265C175.899 21.4991 176.295 21.1011 176.295 20.4643V9.63927H179.702C180.336 9.63927 180.731 9.24129 180.731 8.60455V8.32596C180.731 7.68923 180.336 7.29126 179.702 7.29126Z" fill="#FFFFFF"/>
  <defs>
    <linearGradient id="paint0_linear_31_8726" x1="34.6882" y1="5.54181" x2="50.0467" y2="21.3569" gradientUnits="userSpaceOnUse">
      <stop offset="0.21" stop-color="#F15A24"/>
      <stop offset="0.6841" stop-color="#FBB03B"/>
    </linearGradient>
    <linearGradient id="paint1_linear_31_8726" x1="20.3806" y1="22.4515" x2="5.02205" y2="6.6364" gradientUnits="userSpaceOnUse">
      <stop offset="0.21" stop-color="#ED1E79"/>
      <stop offset="0.8929" stop-color="#522785"/>
    </linearGradient>
  </defs>
</svg>
