<svg width="16" height="16" viewBox="0 0 16 16" fill="none" xmlns="http://www.w3.org/2000/svg">
<g clip-path="url(#clip0_2263_19148)">
<mask id="mask0_2263_19148" style="mask-type:alpha" maskUnits="userSpaceOnUse" x="0" y="0" width="16" height="16">
<circle cx="8" cy="8" r="8" fill="#D9D9D9"/>
</mask>
<g mask="url(#mask0_2263_19148)">
<rect width="16" height="16" fill="#FF6C3E"/>
<path fill-rule="evenodd" clip-rule="evenodd" d="M6.13032 13.1053C6.79354 13.1053 7.55196 12.937 8.3216 12.6224C8.34569 12.6127 8.36965 12.6024 8.39348 12.5917C8.4154 12.582 8.43719 12.572 8.4586 12.562L8.46816 12.5576L8.46969 12.5569C8.7948 12.4765 9.13304 12.3663 9.47103 12.2263C11.6422 11.3325 12.5596 9.90516 12.6927 8.85519C12.8526 7.57053 12.037 6.34195 11.0118 5.42029C10.5241 4.85131 9.91963 4.35325 9.31898 3.96892C8.55827 3.48052 7.7792 3.14586 7.09405 2.99168C6.41133 2.838 5.81132 2.86131 5.41803 3.10336C5.04016 3.33469 4.7622 3.77467 4.57039 4.43277C4.29027 4.75833 4.08406 5.25097 3.94337 5.92004C3.80127 6.59571 3.72518 7.45598 3.71014 8.51567C3.69498 9.6241 3.77106 10.5312 3.93903 11.2309C4.10675 11.9295 4.36763 12.4283 4.7283 12.7115C5.058 12.9708 5.54535 13.1053 6.13032 13.1053ZM8.83635 11.5808C9.54826 11.2874 10.1261 10.9363 10.5873 10.5593C10.1373 11.1534 9.41686 11.7497 8.35168 12.2182C8.1145 12.275 7.88561 12.3143 7.6687 12.3361C7.44172 12.3589 7.22774 12.3624 7.03071 12.3468C6.64392 12.3161 6.32607 12.2118 6.10279 12.0373L6.07666 12.0156C6.25215 12.0469 6.44205 12.0639 6.64481 12.0639C7.30803 12.0639 8.06671 11.8954 8.83635 11.5808ZM11.1803 9.20562C11.1755 9.25136 11.1681 9.29792 11.1586 9.34584C11.1499 9.39015 11.1393 9.43564 11.1272 9.48282C10.6584 10.1173 9.87961 10.7608 8.69935 11.248C8.09373 11.4976 7.50672 11.6458 6.98878 11.6923C6.47824 11.738 6.03856 11.6847 5.71408 11.5359C5.3682 10.8669 5.2001 9.7283 5.22329 8.12449C5.2382 7.11291 5.30996 6.29022 5.43944 5.64888C5.56612 5.02132 5.74709 4.57255 5.97968 4.28968C6.70611 4.34241 7.66131 4.69919 8.60759 5.30787C9.29515 5.74953 9.98743 6.34357 10.4831 7.01862C10.9791 7.69398 11.2751 8.44581 11.1803 9.20562ZM8.80462 5.00705C7.96871 4.47079 7.11024 4.11905 6.37832 3.98924C6.46053 3.95615 6.55331 3.93153 6.65666 3.91582C6.74524 3.90236 6.84159 3.89545 6.94545 3.89545C7.70961 3.89545 8.76205 4.27579 9.76351 4.91868C10.1044 5.13618 10.4453 5.39325 10.7632 5.67986C11.3954 6.42259 11.8058 7.28977 11.6981 8.16425C11.6763 8.33993 11.6296 8.52857 11.5533 8.72364C11.5005 8.00907 11.1704 7.3233 10.7012 6.71219C10.1822 6.03571 9.49002 5.44709 8.80462 5.00705ZM4.89729 4.60571C4.95897 4.54264 5.02588 4.48886 5.09521 4.44679C5.15333 4.41083 5.21807 4.38092 5.28918 4.35705C5.36335 4.33219 5.44466 4.3138 5.53273 4.30196C5.32525 4.64566 5.16913 5.11075 5.05978 5.70373C4.94049 6.35005 4.87601 7.15161 4.86262 8.11969C4.84516 9.30377 4.93361 10.2578 5.12771 10.9753C4.96802 10.699 4.84211 10.3293 4.75213 9.8649C4.63029 9.23597 4.57511 8.43858 4.58849 7.47561C4.60506 6.24342 4.7074 5.29079 4.89729 4.60571ZM6.31078 3.24663C6.85586 3.24663 7.55082 3.44163 8.26986 3.78938C7.94653 3.68044 7.6362 3.60584 7.34869 3.56808C6.82667 3.49959 6.37297 3.55181 6.05602 3.74887C5.97101 3.80097 5.89582 3.86186 5.8219 3.93371C5.55121 3.93041 5.30677 3.96699 5.10082 4.04707C5.2433 3.73902 5.4165 3.52894 5.61327 3.4086C5.78303 3.30216 6.016 3.24663 6.31078 3.24663ZM5.38884 11.7648L5.40643 11.7757C5.42198 11.7852 5.43791 11.7946 5.45397 11.8038C5.5753 12.0156 5.7174 12.1867 5.88078 12.3155C6.12522 12.5082 6.45607 12.6304 6.84872 12.6821C6.49596 12.7432 6.16753 12.7617 5.87657 12.7382C5.49131 12.7071 5.17499 12.6028 4.95337 12.4298C4.65311 12.1926 4.42434 11.7505 4.27536 11.0944C4.12663 10.4397 4.05909 9.57979 4.074 8.51704C4.08853 7.47736 4.16397 6.63834 4.30059 5.98984C4.25892 6.43256 4.23432 6.9257 4.22795 7.47094C4.21113 8.57936 4.28721 9.48643 4.45557 10.1862C4.62379 10.8848 4.88556 11.3836 5.24611 11.6668L5.24713 11.6675C5.28217 11.6937 5.31811 11.719 5.35545 11.7434L5.38884 11.7648ZM12.0547 8.20962C12.0973 7.86331 12.0691 7.52079 11.9855 7.18788C12.2603 7.70807 12.4 8.25966 12.3296 8.813C12.2324 9.58714 11.6329 10.6225 10.263 11.4342C10.9191 10.8433 11.2986 10.2042 11.4595 9.63619C11.8146 9.14006 12.0003 8.64243 12.0547 8.20962Z" fill="white"/>
</g>
</g>
<defs>
<clipPath id="clip0_2263_19148">
<rect width="16" height="16" fill="white"/>
</clipPath>
</defs>
</svg>
