<svg xmlns="http://www.w3.org/2000/svg" fill="none" height="37" viewBox="0 0 37 37" width="37">
    <g fill="#fff">
        <path d="m29.4176 2.30067-7.6383 11.34443c-.1237.1637-.181.3683-.1601.5725.0208.2043.1181.3931.2724.5284.1543.1354.354.2072.5591.2012.205-.0061.4002-.0897.5462-.2339l7.5165-6.49876c.0433-.03977.0974-.06594.1554-.07525.0581-.00932.1176-.00138.1712.02284s.0989.06365.1303.1134.0475.10763.0463.16646v20.42641c-.0006.062-.0201.1224-.0559.173s-.0862.0891-.1444.1103-.1216.0241-.1815.0083-.1136-.0495-.1539-.0966l-22.728-27.21359c-.36283-.43689-.81677-.78906-1.32997-1.031829-.51321-.242769-1.07326-.370257-1.6409-.373525h-.79142c-1.03227 0-2.02226.410385-2.75219 1.140874-.729919.73049-1.1399856 1.72125-1.1399856 2.75432v28.76515c0 1.0331.4100666 2.0238 1.1399856 2.7543.72993.7305 1.71992 1.1409 2.75219 1.1409.66512-.0001 1.31913-.1707 1.89961-.4957.58048-.3249 1.06807-.7934 1.41624-1.3605l7.63824-11.3444c.1238-.1638.181-.3683.1602-.5726-.0209-.2042-.1182-.393-.2725-.5284-.1542-.1353-.354-.2072-.559-.2011-.2051.0061-.4003.0896-.5463.2339l-7.51645 6.4987c-.04334.0398-.09739.066-.15545.0753-.05805.0093-.11757.0013-.17115-.0229-.05359-.0242-.0989-.0636-.1303-.1134-.03141-.0497-.04753-.1076-.04637-.1664v-20.40616c.00061-.06201.02013-.12237.05593-.17299s.08619-.0891.14443-.11029c.05824-.0212.12155-.0241.18148-.00831.05993.01578.11362.04949.15389.09663l22.72799 27.21352c.3656.433.8212.7809 1.3351 1.0194.5138.2385 1.0734.3619 1.6399.3616h.8117c.5111 0 1.0172-.1007 1.4894-.2965.4723-.1957.9013-.4826 1.2628-.8443.3614-.3617.6481-.7911.8437-1.2637s.2962-.9791.2962-1.4907v-28.76105c.0001-.51358-.1014-1.02209-.2985-1.49628-.1972-.47418-.486-.90467-.85-1.26669s-.796-.64843-1.271-.842743c-.4751-.194313-.9838-.292694-1.497-.289481-.6651.00008-1.3191.170739-1.8996.495692-.5805.324952-1.0681.793362-1.4162 1.360522z"/>
    </g>
</svg>