<svg version="1.1" xmlns="http://www.w3.org/2000/svg" x="0px" y="0px" width="100px" viewBox="0 0 639.5 221.62"
     fill="#FFFFFF">
    <defs></defs>
    <path class="st0" d="M317.1,50.1h-39.5V157h-9.7V50.1h-39.4v-8.2h88.6V50.1z"></path>
    <path class="st0"
          d="M353.6,158.7c-14.13,0.21-27.13-7.72-33.4-20.39c-3.34-6.67-5.02-14.04-4.9-21.5v-3.4 c-0.12-7.67,1.53-15.26,4.8-22.2c2.91-6.3,7.52-11.67,13.3-15.5c5.47-3.68,11.91-5.66,18.5-5.7c10.4,0,18.6,3.5,24.7,10.6 s9.1,16.8,9.1,29.1v5.3h-61.1v1.8c0,9.7,2.8,17.8,8.3,24.2c5.15,6.27,12.89,9.85,21,9.7c4.62,0.11,9.21-0.85,13.4-2.8 c4.2-2.07,7.83-5.13,10.6-8.9l5.9,4.5C377,153.6,366.9,158.7,353.6,158.7z M351.9,78c-6.84-0.11-13.4,2.73-18,7.8 c-4.9,5.2-7.8,12.2-8.9,21h51.3v-1c-0.3-8.2-2.6-14.9-7-20.1S359.1,78,351.9,78L351.9,78z"></path>
    <path class="st0" d="M413.7,149.1h55.6v8H402v-7l51.9-70.4h-50.3v-8.2h62.2v7.1L413.7,149.1z"></path>
    <path class="st0"
          d="M482.9,113c-0.12-7.67,1.53-15.26,4.8-22.2c2.96-6.31,7.64-11.64,13.5-15.4c5.93-3.72,12.81-5.63,19.8-5.5 c11.4,0,20.6,4,27.7,12s10.6,18.6,10.6,31.8v2c0.13,7.7-1.52,15.33-4.8,22.3c-2.93,6.3-7.62,11.62-13.5,15.31 c-5.95,3.64-12.82,5.52-19.8,5.4c-11.3,0-20.6-4-27.7-12s-10.6-18.6-10.6-31.8V113z M492.4,115.6c0,10.2,2.7,18.6,7.9,25.2 s12.2,9.8,20.8,9.8c8.09,0.19,15.8-3.44,20.8-9.8c5.3-6.6,7.9-15.2,7.9-26V113c0.06-6.18-1.16-12.32-3.6-18 c-2.14-5.08-5.68-9.45-10.2-12.6c-4.42-3.01-9.66-4.58-15-4.5c-8.08-0.15-15.75,3.52-20.7,9.9c-5.3,6.6-8,15.3-8,26 C492.3,113.8,492.4,115.6,492.4,115.6z"></path>
    <path class="st0"
          d="M630.1,135.31c0.12-4.48-2.02-8.73-5.7-11.3c-3.8-2.8-9.4-5.1-17.1-6.7c-6.09-1.14-12.03-2.98-17.7-5.5 c-4.2-2.1-7.3-4.6-9.3-7.6c-2.11-3.24-3.19-7.04-3.1-10.9c0-6.8,2.8-12.3,8.5-16.7s12.9-6.6,21.7-6.6c9.5,0,17.2,2.4,23,7.1 c5.67,4.44,8.9,11.3,8.7,18.5h-9.5c0.04-4.94-2.31-9.59-6.3-12.5c-4.2-3.3-9.5-5-15.9-5c-6.2,0-11.2,1.4-15,4.1 c-3.6,2.41-5.74,6.47-5.7,10.8c-0.19,3.88,1.58,7.59,4.7,9.9c3.1,2.3,8.9,4.5,17.2,6.5s14.5,4,18.7,6.2c3.69,1.84,6.86,4.6,9.2,8 c5.6,9.6,3.15,21.88-5.7,28.6c-5.8,4.3-13.4,6.5-22.8,6.5c-10,0-18.1-2.4-24.2-7.2s-9.3-10.9-9.3-18.3h9.5 c0.2,5.16,2.78,9.93,7,12.9c4.3,3.1,10,4.6,17.1,4.6c6.6,0,11.9-1.5,16-4.3C628.1,143.4,630.1,139.7,630.1,135.31z"></path>
    <path class="st0"
          d="M158.6,163.5c-2.3-40.7-53.5-59.2-58.4-61.1c-0.2-0.1-0.2-0.3-0.1-0.5l52.8-53v-5.7 c-0.03-0.93-0.77-1.67-1.7-1.7H53.9V9.6l0,0V0L18,7.5v5.4h2c0,0,8.8,0,8.8,8.8v19.7H1c-0.54,0.04-0.96,0.46-1,1v12.5h28.9v67.9 c0,21.3,13.7,36.1,37.7,34.1c4.94-0.49,9.69-2.21,13.8-5c1.81-1.16,2.9-3.15,2.9-5.3v-6.7c-7.8,5.2-14.4,4.9-14.4,4.9 c-15.2,0-14.9-19.3-14.9-19.3V54.9h70l-50.4,50.8c-0.1,6.7-0.2,11.9-0.2,12c-0.02,0.15,0.09,0.28,0.24,0.3c0.02,0,0.04,0,0.06,0 c46.2,7.8,58.7,37.7,58.7,46.4c0,0,5,42.3-37.3,45.2c0,0-27.7,1.2-32.6-9.9c-0.18-0.36-0.02-0.8,0.34-0.97 c0.02-0.01,0.04-0.02,0.06-0.03c4.71-1.97,7.76-6.59,7.7-11.7c0-8.2-5-14.9-15.5-14.9c-8.5,0-15.5,6.7-15.5,14.9 c0,0-4,35.6,55.4,34.6C162.8,220.4,158.6,163.5,158.6,163.5z"></path>
</svg>